<svg width="199" height="20" viewBox="0 0 199 20" fill="none" xmlns="http://www.w3.org/2000/svg"><path d="M0 3C0 1.34315 1.34315 0 3 0H98V20H3C1.34314 20 0 18.6569 0 17V3Z" fill="#003648"/><path fill-rule="evenodd" clip-rule="evenodd" d="M21.1375 5C21.615 5 22.0021 5.38575 22.0021 5.86154V13.7201L22.877 13.7202V14.3166C22.877 14.694 22.57 15 22.1912 15H8.68582C8.30706 15 8 14.694 8 14.3166V13.7201H8.87535V5.86154C8.87535 5.38575 9.26234 5 9.73998 5H21.1375ZM21.1269 5.87193H9.75041V13.7199L9.75026 13.7201H14.1258C14.1258 13.9454 14.3091 14.1279 14.5352 14.1279H16.3418C16.568 14.1279 16.7512 13.9454 16.7512 13.7201H21.1269V5.87193ZM30.5453 8.10925C31.1807 8.10925 31.7151 8.24321 32.1482 8.51111C32.5812 8.77916 32.906 9.12875 33.1226 9.56033L31.4882 10.051C31.2717 9.70306 30.954 9.52885 30.5347 9.52885C30.1855 9.52885 29.894 9.65783 29.6598 9.91519C29.4258 10.1728 29.309 10.5173 29.309 10.9487C29.309 11.1645 29.3404 11.361 29.4031 11.5386C29.466 11.716 29.5534 11.8674 29.6653 11.9928C29.7769 12.118 29.9078 12.2155 30.058 12.285C30.2083 12.3547 30.3672 12.3896 30.5347 12.3896C30.7444 12.3896 30.9363 12.3391 31.111 12.2382C31.2853 12.1373 31.4149 12.0069 31.4988 11.8466L33.133 12.3479C32.9304 12.7723 32.6075 13.1202 32.1639 13.3917C31.7205 13.6632 31.1807 13.7989 30.5453 13.7989C30.0841 13.7989 29.6705 13.7206 29.3035 13.564C28.937 13.4073 28.6259 13.1986 28.3713 12.9375C28.1161 12.6765 27.9222 12.3739 27.7897 12.0293C27.6569 11.6848 27.5907 11.3247 27.5907 10.9487C27.5907 10.5729 27.6569 10.2128 27.7897 9.86835C27.9222 9.52373 28.1144 9.22098 28.366 8.96011C28.6176 8.69894 28.9265 8.49208 29.2931 8.3388C29.6598 8.18582 30.0771 8.10925 30.5453 8.10925ZM36.4543 8.10923C36.9223 8.10923 37.3379 8.1874 37.7011 8.34404C38.0644 8.50069 38.3718 8.70945 38.6232 8.97047C38.8746 9.23135 39.0667 9.53424 39.1996 9.87871C39.3321 10.2232 39.3985 10.5835 39.3985 10.9591C39.3985 11.3351 39.3338 11.6952 39.2045 12.0398C39.0756 12.3843 38.8853 12.687 38.6336 12.948C38.3821 13.2091 38.0731 13.4162 37.7065 13.5692C37.3398 13.7223 36.9223 13.7989 36.4543 13.7989C35.9864 13.7989 35.569 13.7223 35.2024 13.5692C34.8357 13.4162 34.5265 13.2091 34.2752 12.948C34.0237 12.687 33.8331 12.3843 33.704 12.0398C33.5749 11.6952 33.5104 11.3351 33.5104 10.9591C33.5104 10.5835 33.5749 10.2232 33.704 9.87871C33.8331 9.53424 34.0237 9.23135 34.2752 8.97047C34.5265 8.70945 34.8357 8.50069 35.2024 8.34404C35.569 8.1874 35.9864 8.10923 36.4543 8.10923ZM45.7687 6.07345V11.8154C45.7687 11.9823 45.7999 12.0989 45.8629 12.165C45.9257 12.2313 46.0375 12.2713 46.198 12.2852V13.6945C46.0235 13.7292 45.8716 13.7519 45.7424 13.7623C45.613 13.7728 45.4964 13.778 45.3913 13.778C44.8047 13.7641 44.4695 13.531 44.3856 13.0785L44.354 12.7861C44.1514 13.1272 43.8861 13.3812 43.5577 13.5483C43.2294 13.7153 42.8768 13.7989 42.4998 13.7989C42.1223 13.7989 41.7749 13.7275 41.4572 13.5849C41.1391 13.4423 40.8651 13.242 40.6346 12.9845C40.4042 12.7271 40.2244 12.426 40.0953 12.0815C39.9658 11.7369 39.9013 11.3595 39.9013 10.9487C39.9013 10.552 39.9604 10.1798 40.0794 9.83172C40.1983 9.48374 40.3657 9.18275 40.5823 8.92875C40.7987 8.67461 41.0554 8.47448 41.3525 8.32838C41.6491 8.18228 41.9758 8.10923 42.332 8.10923C42.7094 8.10923 43.0548 8.1997 43.3692 8.38064C43.6835 8.56173 43.9247 8.80519 44.0921 9.11145V6.07345H45.7687ZM82.7112 8.10923C83.1791 8.10923 83.5946 8.1874 83.9579 8.34404C84.3213 8.50069 84.6286 8.70945 84.88 8.97047C85.1314 9.23135 85.3236 9.53424 85.4564 9.87871C85.5891 10.2232 85.6553 10.5835 85.6553 10.9591C85.6553 11.3351 85.5905 11.6952 85.4614 12.0398C85.3324 12.3843 85.1421 12.687 84.8906 12.948C84.6389 13.2091 84.3299 13.4162 83.9634 13.5692C83.5967 13.7223 83.1791 13.7989 82.7112 13.7989C82.2432 13.7989 81.8258 13.7223 81.4593 13.5692C81.0926 13.4162 80.7834 13.2091 80.5321 12.948C80.2805 12.687 80.09 12.3843 79.9608 12.0398C79.8317 11.6952 79.7673 11.3351 79.7673 10.9591C79.7673 10.5835 79.8317 10.2232 79.9608 9.87871C80.09 9.53424 80.2805 9.23135 80.5321 8.97047C80.7834 8.70945 81.0926 8.50069 81.4593 8.34404C81.8258 8.1874 82.2432 8.10923 82.7112 8.10923ZM77.9756 6.47003V8.21346H79.0966V9.47685H77.9756V11.763C77.9756 11.9442 78.0226 12.0746 78.1168 12.1546C78.2114 12.2347 78.3282 12.2746 78.4681 12.2746C78.5868 12.2746 78.7123 12.2537 78.8452 12.2121C78.9776 12.1702 79.0966 12.125 79.2014 12.0764L79.5156 13.4022C79.2852 13.4998 79.0231 13.59 78.73 13.6736C78.4365 13.7572 78.1359 13.7989 77.8288 13.7989C77.6195 13.7989 77.4219 13.7728 77.2369 13.7206C77.0518 13.6685 76.8894 13.5849 76.7495 13.4699C76.6101 13.3552 76.5001 13.2038 76.4199 13.016C76.3393 12.828 76.2989 12.6018 76.2989 12.3373V9.47685H75.5973V8.21346H76.2989V6.47003H77.9756ZM49.7605 8.10923C50.2282 8.10923 50.6438 8.18579 51.007 8.33877C51.3703 8.49205 51.6777 8.69891 51.9292 8.96008C52.1807 9.22095 52.371 9.52209 52.5 9.86305C52.6293 10.2041 52.6941 10.5625 52.6941 10.9383C52.6941 11.0358 52.6903 11.1314 52.6835 11.2254C52.6766 11.3194 52.666 11.4012 52.6521 11.4708H48.5868C48.6147 11.8397 48.7491 12.1199 48.9904 12.3112C49.2312 12.5027 49.5053 12.5983 49.8128 12.5983C50.0571 12.5983 50.293 12.5393 50.5199 12.4207C50.7468 12.3024 50.8987 12.1424 50.9757 11.9405L52.4005 12.3373C52.1841 12.7689 51.8487 13.1202 51.3949 13.3916C50.9406 13.6632 50.3958 13.7989 49.7605 13.7989C49.2992 13.7989 48.8856 13.7241 48.5187 13.5745C48.152 13.4249 47.8411 13.2214 47.5865 12.9636C47.3312 12.7063 47.1373 12.4087 47.0049 12.071C46.8721 11.7335 46.8059 11.3804 46.8059 11.0114C46.8059 10.6146 46.8721 10.2406 47.0049 9.88925C47.1373 9.53776 47.3296 9.22974 47.5811 8.9652C47.8326 8.70081 48.1416 8.49205 48.5083 8.33877C48.875 8.18579 49.2921 8.10923 49.7605 8.10923ZM65.8744 8.10923C66.3421 8.10923 66.7577 8.18579 67.1209 8.33877C67.4842 8.49205 67.7916 8.69891 68.0431 8.96008C68.2946 9.22095 68.4849 9.52209 68.6139 9.86305C68.7432 10.2041 68.808 10.5625 68.808 10.9383C68.808 11.0358 68.8042 11.1314 68.7974 11.2254C68.7905 11.3194 68.7799 11.4012 68.766 11.4708H64.7007C64.7286 11.8397 64.863 12.1199 65.1043 12.3112C65.3451 12.5027 65.6192 12.5983 65.9267 12.5983C66.171 12.5983 66.4067 12.5393 66.6338 12.4207C66.8607 12.3024 67.0126 12.1424 67.0896 11.9405L68.5144 12.3373C68.298 12.7689 67.9626 13.1202 67.5088 13.3916C67.0545 13.6632 66.5097 13.7989 65.8744 13.7989C65.4131 13.7989 64.9995 13.7241 64.6326 13.5745C64.2659 13.4249 63.955 13.2214 63.7003 12.9636C63.4451 12.7063 63.2511 12.4087 63.1186 12.071C62.986 11.7335 62.9198 11.3804 62.9198 11.0114C62.9198 10.6146 62.986 10.2406 63.1186 9.88925C63.2511 9.53776 63.4435 9.22974 63.695 8.9652C63.9465 8.70081 64.2555 8.49205 64.6222 8.33877C64.9889 8.18579 65.406 8.10923 65.8744 8.10923ZM73.2082 8.10915C73.5645 8.10915 73.8528 8.17357 74.0727 8.3021C74.2928 8.43122 74.4619 8.59811 74.5809 8.80336C74.6994 9.00875 74.7782 9.23318 74.8164 9.47678C74.8549 9.72038 74.8741 9.95711 74.8741 10.1867V13.6944H73.1979V10.6147C73.1979 10.2528 73.1298 9.99019 72.9936 9.82652C72.8574 9.663 72.6772 9.58116 72.4538 9.58116C72.3352 9.58116 72.2146 9.60561 72.0925 9.65421C71.9701 9.70296 71.8548 9.77089 71.7468 9.8577C71.6385 9.94481 71.5388 10.0474 71.4482 10.1657C71.3573 10.2843 71.2872 10.413 71.2386 10.5521V13.6944H69.5624V8.21353H71.0708V9.13231C71.2734 8.80526 71.5595 8.55288 71.9299 8.3753C72.3001 8.19787 72.7263 8.10915 73.2082 8.10915ZM60.5099 8.10915C60.8592 8.10915 61.1402 8.17357 61.3536 8.3021C61.5662 8.43122 61.7322 8.59811 61.851 8.80336C61.9699 9.00875 62.0484 9.23318 62.0867 9.47678C62.125 9.72038 62.1446 9.95711 62.1446 10.1867V13.6944H60.4681V10.6147C60.4681 10.2528 60.4033 9.99019 60.2741 9.82652C60.145 9.663 59.9722 9.58116 59.7555 9.58116C59.5322 9.58116 59.3137 9.67178 59.1007 9.85258C58.8877 10.0337 58.7324 10.2667 58.6344 10.5521V13.6944H56.9581V10.6147C56.9581 10.2528 56.8935 9.99019 56.7644 9.82652C56.6352 9.663 56.4621 9.58116 56.2457 9.58116C56.022 9.58116 55.8039 9.66988 55.5911 9.84746C55.3776 10.0249 55.2223 10.2597 55.1247 10.5521V13.6944H53.4485V8.21353H54.9569V9.13231C55.1595 8.79824 55.4353 8.54409 55.7848 8.37003C56.1341 8.19626 56.5393 8.10915 57 8.10915C57.2236 8.10915 57.4224 8.13711 57.5973 8.19274C57.7716 8.24837 57.9203 8.32494 58.0427 8.42229C58.1648 8.51994 58.2662 8.63296 58.3463 8.76164C58.4268 8.89047 58.4842 9.02793 58.5193 9.17389C58.7216 8.83308 58.9945 8.5703 59.3365 8.38569C59.6787 8.20138 60.0699 8.10915 60.5099 8.10915ZM89.9509 8.14035V9.64383C89.5458 9.65086 89.181 9.71688 88.8561 9.84205C88.5312 9.96737 88.292 10.1553 88.1383 10.406V13.6945H86.4621V8.2134H88.0021V9.32015C88.1976 8.95138 88.4439 8.66415 88.7408 8.45876C89.0376 8.25366 89.3538 8.14401 89.6892 8.1301C89.8288 8.1301 89.9159 8.13362 89.9509 8.14035ZM18.2305 9.54086C19.1011 9.92808 19.7686 10.9044 19.9637 12.1138C20.0228 12.4799 19.7587 12.8147 19.3958 12.8457L19.3406 12.8481H15.4527C15.0619 12.8481 14.7676 12.4982 14.8297 12.1138C15.0248 10.9044 15.6923 9.92808 16.5629 9.54086C16.8098 9.67862 17.0941 9.75767 17.3967 9.75767C17.6992 9.75767 17.9835 9.67862 18.2305 9.54086ZM13.261 11.7989C13.5027 11.7989 13.6985 11.994 13.6985 12.2348C13.6985 12.4596 13.5279 12.6447 13.3087 12.6684L13.261 12.671H11.4903C11.2487 12.671 11.0528 12.4757 11.0528 12.2348C11.0528 12.0101 11.2235 11.8251 11.4426 11.8014L11.4903 11.7989H13.261ZM42.8663 9.52882C42.6846 9.52882 42.5189 9.56908 42.3686 9.64902C42.2184 9.72909 42.0875 9.83538 41.9758 9.96743C41.864 10.0998 41.7785 10.2529 41.7192 10.4268C41.6598 10.6009 41.63 10.7853 41.63 10.98C41.63 11.3908 41.7521 11.7284 41.9969 11.9928C42.2412 12.2573 42.5588 12.3895 42.9502 12.3895C43.1807 12.3895 43.4007 12.3218 43.6103 12.1858C43.8197 12.0502 43.9838 11.8641 44.1028 11.6273V10.4789C43.9979 10.2006 43.8285 9.97255 43.5946 9.79512C43.3604 9.61769 43.118 9.52882 42.8663 9.52882ZM82.7112 9.52882C82.5366 9.52882 82.3741 9.56381 82.224 9.63335C82.0738 9.70304 81.9447 9.80039 81.8364 9.92556C81.728 10.051 81.6423 10.2024 81.5798 10.3798C81.517 10.5573 81.4854 10.7504 81.4854 10.9591C81.4854 11.3908 81.6008 11.7369 81.8313 11.9981C82.0618 12.259 82.3549 12.3895 82.7112 12.3895C82.8856 12.3895 83.0466 12.3548 83.1932 12.2852C83.3399 12.2156 83.4672 12.118 83.5757 11.9928C83.6839 11.8675 83.7695 11.716 83.8323 11.5385C83.8952 11.3611 83.9265 11.168 83.9265 10.9591C83.9265 10.5278 83.8113 10.1815 83.581 9.92043C83.3504 9.65941 83.0604 9.52882 82.7112 9.52882ZM36.4543 9.52882C36.2798 9.52882 36.1172 9.56381 35.9672 9.63335C35.817 9.70304 35.6877 9.80039 35.5794 9.92556C35.4712 10.051 35.3856 10.2024 35.3229 10.3798C35.26 10.5573 35.2286 10.7504 35.2286 10.9591C35.2286 11.3908 35.3439 11.7369 35.5744 11.9981C35.8048 12.259 36.0981 12.3895 36.4543 12.3895C36.6287 12.3895 36.7898 12.3548 36.9364 12.2852C37.083 12.2156 37.2104 12.118 37.3188 11.9928C37.4271 11.8675 37.5126 11.716 37.5753 11.5385C37.6384 11.3611 37.6697 11.168 37.6697 10.9591C37.6697 10.5278 37.5546 10.1815 37.3241 9.92043C37.0936 9.65941 36.8036 9.52882 36.4543 9.52882ZM13.6883 10.1836C13.93 10.1836 14.1258 10.3789 14.1258 10.6196C14.1258 10.8443 13.9552 11.0294 13.736 11.0531L13.6883 11.0557H11.5005C11.2588 11.0557 11.063 10.8604 11.063 10.6196C11.063 10.3949 11.2336 10.2098 11.4528 10.1862L11.5005 10.1836H13.6883ZM65.8533 9.30982C65.5249 9.30982 65.2541 9.41244 65.0411 9.61769C64.8282 9.82308 64.7043 10.0963 64.6695 10.4372H67.0373C67.0022 10.0892 66.8764 9.81444 66.6601 9.61242C66.4433 9.41068 66.1746 9.30982 65.8533 9.30982ZM49.7394 9.30982C49.411 9.30982 49.1402 9.41244 48.9273 9.61769C48.7143 9.82308 48.5904 10.0963 48.5556 10.4372H50.9235C50.8883 10.0892 50.7625 9.81444 50.5462 9.61242C50.3294 9.41068 50.0607 9.30982 49.7394 9.30982ZM12.8131 8.56785L12.824 8.56826L12.8349 8.56888H14.5634C14.8052 8.56888 15.0011 8.76402 15.0011 9.00485C15.0011 9.22961 14.8304 9.41459 14.6111 9.43825L14.5634 9.44081H12.3756L12.3647 9.44041L12.3538 9.43979H11.5005C11.2588 9.43979 11.0629 9.24464 11.0629 9.00382C11.0629 8.77905 11.2336 8.59408 11.4528 8.57041L11.5005 8.56785H12.8131ZM17.3966 6.72008C18.1217 6.72008 18.7094 7.30566 18.7094 8.02798C18.7094 8.75044 18.1217 9.33602 17.3966 9.33602C16.6717 9.33602 16.0839 8.75044 16.0839 8.02798C16.0839 7.30566 16.6717 6.72008 17.3966 6.72008ZM11.7193 6.95273H14.5628C14.8043 6.95273 15.0003 7.14787 15.0003 7.3887C15.0003 7.61346 14.8296 7.79844 14.6104 7.8221L14.5628 7.82466H11.9527L11.9454 7.82508L11.938 7.82539H11.5005C11.2588 7.82539 11.063 7.63025 11.063 7.38943C11.063 7.16466 11.2336 6.97968 11.4528 6.95602L11.5005 6.95346H11.7046L11.7193 6.95273H14.5628H11.7193Z" fill="white"/><path d="M98 0H196C197.657 0 199 1.34315 199 3V17C199 18.6569 197.657 20 196 20H98V0Z" fill="#F1F1F1"/><path d="M107.178 5.43359H109.598C110.734 5.43359 111.557 5.60352 112.064 5.94336C112.572 6.2832 112.826 6.82031 112.826 7.55469C112.826 8.0625 112.684 8.48242 112.398 8.81445C112.117 9.14258 111.705 9.35547 111.162 9.45312V9.51172C112.463 9.73438 113.113 10.418 113.113 11.5625C113.113 12.3281 112.854 12.9258 112.334 13.3555C111.818 13.7852 111.096 14 110.166 14H107.178V5.43359ZM108.174 9.10156H109.814C110.518 9.10156 111.023 8.99219 111.332 8.77344C111.641 8.55078 111.795 8.17773 111.795 7.6543C111.795 7.17383 111.623 6.82812 111.279 6.61719C110.936 6.40234 110.389 6.29492 109.639 6.29492H108.174V9.10156ZM108.174 9.94531V13.1504H109.961C110.652 13.1504 111.172 13.0176 111.52 12.752C111.871 12.4824 112.047 12.0625 112.047 11.4922C112.047 10.9609 111.867 10.5703 111.508 10.3203C111.152 10.0703 110.609 9.94531 109.879 9.94531H108.174Z" fill="#003648"/><path d="M120.355 10.7832C120.355 11.8301 120.092 12.6484 119.564 13.2383C119.037 13.8242 118.309 14.1172 117.379 14.1172C116.805 14.1172 116.295 13.9824 115.85 13.7129C115.404 13.4434 115.061 13.0566 114.818 12.5527C114.576 12.0488 114.455 11.459 114.455 10.7832C114.455 9.73633 114.717 8.92188 115.24 8.33984C115.764 7.75391 116.49 7.46094 117.42 7.46094C118.318 7.46094 119.031 7.75977 119.559 8.35742C120.09 8.95508 120.355 9.76367 120.355 10.7832ZM115.463 10.7832C115.463 11.6035 115.627 12.2285 115.955 12.6582C116.283 13.0879 116.766 13.3027 117.402 13.3027C118.039 13.3027 118.521 13.0898 118.85 12.6641C119.182 12.2344 119.348 11.6074 119.348 10.7832C119.348 9.9668 119.182 9.34766 118.85 8.92578C118.521 8.5 118.035 8.28711 117.391 8.28711C116.754 8.28711 116.273 8.49609 115.949 8.91406C115.625 9.33203 115.463 9.95508 115.463 10.7832Z" fill="#003648"/><path d="M127.609 10.7832C127.609 11.8301 127.346 12.6484 126.818 13.2383C126.291 13.8242 125.562 14.1172 124.633 14.1172C124.059 14.1172 123.549 13.9824 123.104 13.7129C122.658 13.4434 122.314 13.0566 122.072 12.5527C121.83 12.0488 121.709 11.459 121.709 10.7832C121.709 9.73633 121.971 8.92188 122.494 8.33984C123.018 7.75391 123.744 7.46094 124.674 7.46094C125.572 7.46094 126.285 7.75977 126.812 8.35742C127.344 8.95508 127.609 9.76367 127.609 10.7832ZM122.717 10.7832C122.717 11.6035 122.881 12.2285 123.209 12.6582C123.537 13.0879 124.02 13.3027 124.656 13.3027C125.293 13.3027 125.775 13.0898 126.104 12.6641C126.436 12.2344 126.602 11.6074 126.602 10.7832C126.602 9.9668 126.436 9.34766 126.104 8.92578C125.775 8.5 125.289 8.28711 124.645 8.28711C124.008 8.28711 123.527 8.49609 123.203 8.91406C122.879 9.33203 122.717 9.95508 122.717 10.7832Z" fill="#003648"/><path d="M130.281 10.7129C130.449 10.4746 130.705 10.1621 131.049 9.77539L133.123 7.57812H134.277L131.676 10.3145L134.459 14H133.281L131.014 10.9648L130.281 11.5977V14H129.32V4.88281H130.281V9.7168C130.281 9.93164 130.266 10.2637 130.234 10.7129H130.281Z" fill="#003648"/><path d="M143.723 11.7207C143.723 12.4746 143.449 13.0625 142.902 13.4844C142.355 13.9062 141.613 14.1172 140.676 14.1172C139.66 14.1172 138.879 13.9863 138.332 13.7246V12.7637C138.684 12.9121 139.066 13.0293 139.48 13.1152C139.895 13.2012 140.305 13.2441 140.711 13.2441C141.375 13.2441 141.875 13.1191 142.211 12.8691C142.547 12.6152 142.715 12.2637 142.715 11.8145C142.715 11.5176 142.654 11.2754 142.533 11.0879C142.416 10.8965 142.217 10.7207 141.936 10.5605C141.658 10.4004 141.234 10.2188 140.664 10.0156C139.867 9.73047 139.297 9.39258 138.953 9.00195C138.613 8.61133 138.443 8.10156 138.443 7.47266C138.443 6.8125 138.691 6.28711 139.188 5.89648C139.684 5.50586 140.34 5.31055 141.156 5.31055C142.008 5.31055 142.791 5.4668 143.506 5.7793L143.195 6.64648C142.488 6.34961 141.801 6.20117 141.133 6.20117C140.605 6.20117 140.193 6.31445 139.896 6.54102C139.6 6.76758 139.451 7.08203 139.451 7.48438C139.451 7.78125 139.506 8.02539 139.615 8.2168C139.725 8.4043 139.908 8.57812 140.166 8.73828C140.428 8.89453 140.826 9.06836 141.361 9.25977C142.26 9.58008 142.877 9.92383 143.213 10.291C143.553 10.6582 143.723 11.1348 143.723 11.7207Z" fill="#003648"/><path d="M148.041 14.1172C147.092 14.1172 146.342 13.8281 145.791 13.25C145.244 12.6719 144.971 11.8691 144.971 10.8418C144.971 9.80664 145.225 8.98438 145.732 8.375C146.244 7.76562 146.93 7.46094 147.789 7.46094C148.594 7.46094 149.23 7.72656 149.699 8.25781C150.168 8.78516 150.402 9.48242 150.402 10.3496V10.9648H145.979C145.998 11.7188 146.188 12.291 146.547 12.6816C146.91 13.0723 147.42 13.2676 148.076 13.2676C148.768 13.2676 149.451 13.123 150.127 12.834V13.7012C149.783 13.8496 149.457 13.9551 149.148 14.0176C148.844 14.084 148.475 14.1172 148.041 14.1172ZM147.777 8.27539C147.262 8.27539 146.85 8.44336 146.541 8.7793C146.236 9.11523 146.057 9.58008 146.002 10.1738H149.359C149.359 9.56055 149.223 9.0918 148.949 8.76758C148.676 8.43945 148.285 8.27539 147.777 8.27539Z" fill="#003648"/><path d="M156.209 12.248C156.209 12.8457 155.986 13.3066 155.541 13.6309C155.096 13.9551 154.471 14.1172 153.666 14.1172C152.814 14.1172 152.15 13.9824 151.674 13.7129V12.8105C151.982 12.9668 152.312 13.0898 152.664 13.1797C153.02 13.2695 153.361 13.3145 153.689 13.3145C154.197 13.3145 154.588 13.2344 154.861 13.0742C155.135 12.9102 155.271 12.6621 155.271 12.3301C155.271 12.0801 155.162 11.8672 154.943 11.6914C154.729 11.5117 154.307 11.3008 153.678 11.0586C153.08 10.8359 152.654 10.6426 152.4 10.4785C152.15 10.3105 151.963 10.1211 151.838 9.91016C151.717 9.69922 151.656 9.44727 151.656 9.1543C151.656 8.63086 151.869 8.21875 152.295 7.91797C152.721 7.61328 153.305 7.46094 154.047 7.46094C154.738 7.46094 155.414 7.60156 156.074 7.88281L155.729 8.67383C155.084 8.4082 154.5 8.27539 153.977 8.27539C153.516 8.27539 153.168 8.34766 152.934 8.49219C152.699 8.63672 152.582 8.83594 152.582 9.08984C152.582 9.26172 152.625 9.4082 152.711 9.5293C152.801 9.65039 152.943 9.76562 153.139 9.875C153.334 9.98438 153.709 10.1426 154.264 10.3496C155.025 10.627 155.539 10.9062 155.805 11.1875C156.074 11.4688 156.209 11.8223 156.209 12.248Z" fill="#003648"/><path d="M161.939 12.248C161.939 12.8457 161.717 13.3066 161.271 13.6309C160.826 13.9551 160.201 14.1172 159.396 14.1172C158.545 14.1172 157.881 13.9824 157.404 13.7129V12.8105C157.713 12.9668 158.043 13.0898 158.395 13.1797C158.75 13.2695 159.092 13.3145 159.42 13.3145C159.928 13.3145 160.318 13.2344 160.592 13.0742C160.865 12.9102 161.002 12.6621 161.002 12.3301C161.002 12.0801 160.893 11.8672 160.674 11.6914C160.459 11.5117 160.037 11.3008 159.408 11.0586C158.811 10.8359 158.385 10.6426 158.131 10.4785C157.881 10.3105 157.693 10.1211 157.568 9.91016C157.447 9.69922 157.387 9.44727 157.387 9.1543C157.387 8.63086 157.6 8.21875 158.025 7.91797C158.451 7.61328 159.035 7.46094 159.777 7.46094C160.469 7.46094 161.145 7.60156 161.805 7.88281L161.459 8.67383C160.814 8.4082 160.23 8.27539 159.707 8.27539C159.246 8.27539 158.898 8.34766 158.664 8.49219C158.43 8.63672 158.312 8.83594 158.312 9.08984C158.312 9.26172 158.355 9.4082 158.441 9.5293C158.531 9.65039 158.674 9.76562 158.869 9.875C159.064 9.98438 159.439 10.1426 159.994 10.3496C160.756 10.627 161.27 10.9062 161.535 11.1875C161.805 11.4688 161.939 11.8223 161.939 12.248Z" fill="#003648"/><path d="M164.5 14H163.527V7.57812H164.5V14ZM163.445 5.83789C163.445 5.61523 163.5 5.45312 163.609 5.35156C163.719 5.24609 163.855 5.19336 164.02 5.19336C164.176 5.19336 164.311 5.24609 164.424 5.35156C164.537 5.45703 164.594 5.61914 164.594 5.83789C164.594 6.05664 164.537 6.2207 164.424 6.33008C164.311 6.43555 164.176 6.48828 164.02 6.48828C163.855 6.48828 163.719 6.43555 163.609 6.33008C163.5 6.2207 163.445 6.05664 163.445 5.83789Z" fill="#003648"/><path d="M172.105 10.7832C172.105 11.8301 171.842 12.6484 171.314 13.2383C170.787 13.8242 170.059 14.1172 169.129 14.1172C168.555 14.1172 168.045 13.9824 167.6 13.7129C167.154 13.4434 166.811 13.0566 166.568 12.5527C166.326 12.0488 166.205 11.459 166.205 10.7832C166.205 9.73633 166.467 8.92188 166.99 8.33984C167.514 7.75391 168.24 7.46094 169.17 7.46094C170.068 7.46094 170.781 7.75977 171.309 8.35742C171.84 8.95508 172.105 9.76367 172.105 10.7832ZM167.213 10.7832C167.213 11.6035 167.377 12.2285 167.705 12.6582C168.033 13.0879 168.516 13.3027 169.152 13.3027C169.789 13.3027 170.271 13.0898 170.6 12.6641C170.932 12.2344 171.098 11.6074 171.098 10.7832C171.098 9.9668 170.932 9.34766 170.6 8.92578C170.271 8.5 169.785 8.28711 169.141 8.28711C168.504 8.28711 168.023 8.49609 167.699 8.91406C167.375 9.33203 167.213 9.95508 167.213 10.7832Z" fill="#003648"/><path d="M178.211 14V9.8457C178.211 9.32227 178.092 8.93164 177.854 8.67383C177.615 8.41602 177.242 8.28711 176.734 8.28711C176.062 8.28711 175.57 8.46875 175.258 8.83203C174.945 9.19531 174.789 9.79492 174.789 10.6309V14H173.816V7.57812H174.607L174.766 8.45703H174.812C175.012 8.14062 175.291 7.89648 175.65 7.72461C176.01 7.54883 176.41 7.46094 176.852 7.46094C177.625 7.46094 178.207 7.64844 178.598 8.02344C178.988 8.39453 179.184 8.99023 179.184 9.81055V14H178.211Z" fill="#003648"/><path fill-rule="evenodd" clip-rule="evenodd" d="M190.333 10L186.833 6.5V13.5L190.333 10Z" fill="#003648"/></svg>